:SAMPLES-PER-SECOND 30
:FULLY-SPECIFIED
:DEGREES
385
root  54.1903 38.5164 8.47987 174.962 -14.9611 174.88
RightUpLeg  -5.09314 -10.2333 -22.565
RightLeg  37.3034 -0.265054 -0.568764
RightFoot  -3.98315 -0.234572 3.21326
RightToes  2.96859e-009 0 -3.6325e-017
Spine  8.06094 -1.31682 0.807901
Spine1  9.71342 -1.45948 -3.41688
HEad  -5.46449 -26.8714 0.607541
LeftShoulder1  -0.0491132 3.64887 -27.6773
LeftArm  -10.5415 0.0671355 -31.2818
LeftForeArm  5.06097 -7.7814 -5.36759
LeftHand  -0.00863495 5.90373 4.22391
RightShoulder  -0.432579 -4.76428 27.3163
RightArm  25.8514 -12.7832 40.1934
RightForeArm  -12.527 13.9926 8.41298
RightHand  -0.662725 2.52159 -9.92571
LeftUpLeg  -0.353597 12.3958 -3.12023
LeftLeg  19.1113 16.4838 2.51531
LeftFoot  -11.2206 0.0645789 2.57404
LeftToes  3.24686e-010 -7.02549e-012 1.39809e-011
386
root  53.5001 38.614 8.2431 175.479 -21.1481 175.3
RightUpLeg  -7.86637 -11.398 -19.8596
RightLeg  44.9934 -1.76703 -2.19268
RightFoot  -4.93853 -0.151266 2.11768
RightToes  2.96859e-009 0 -3.6325e-017
Spine  7.87567 -1.84741 -1.04441
Spine1  8.91663 -2.74537 -1.09631
HEad  -5.4996 -26.6196 1.88596
LeftShoulder1  -0.0662942 3.69654 -28.2465
LeftArm  -9.79353 0.268113 -32.1889
LeftForeArm  5.74559 -9.05004 -5.80561
LeftHand  -0.00120287 6.11401 4.31322
RightShoulder  -0.308573 -4.43257 26.0894
RightArm  27.2262 -13.324 40.1321
RightForeArm  -12.0251 14.0704 8.57119
RightHand  -0.623808 1.9149 -10.0717
LeftUpLeg  0.348683 9.56433 -4.04922
LeftLeg  17.3693 13.4293 1.21128
LeftFoot  -11.5397 0.0746038 3.13802
LeftToes  3.24686e-010 -7.02549e-012 1.39809e-011
387
root  52.7775 38.7172 7.95156 175.52 -26.9157 175.832
RightUpLeg  -10.5979 -12.6272 -16.9132
RightLeg  50.2845 -2.02291 -2.92607
RightFoot  -5.19139 -0.108778 1.36546
RightToes  2.96859e-009 0 -3.6325e-017
Spine  7.73627 -2.28347 -1.5208
Spine1  8.94126 -3.3825 -0.361187
HEad  -6.82143 -26.4914 4.2901
LeftShoulder1  -0.0172604 3.55441 -27.8538
LeftArm  -8.97072 0.0294191 -34.4207
LeftForeArm  7.5228 -9.61819 -6.12707
LeftHand  0.000374525 6.27609 4.01735
RightShoulder  -0.390276 -4.68329 26.098
RightArm  28.0194 -14.23 39.6904
RightForeArm  -12.8618 15.1181 8.12938
RightHand  -0.571344 1.78382 -9.41463
LeftUpLeg  1.79801 7.74619 -4.65341
LeftLeg  15.6027 10.0395 0.344973
LeftFoot  -11.656 0.0808391 3.8583
LeftToes  3.24686e-010 -7.02549e-012 1.39809e-011
388
root  52.133 38.7681 7.63009 175.6 -31.8423 176.456
RightUpLeg  -13.7776 -13.245 -13.473
RightLeg  52.3757 -0.982463 -1.75029
RightFoot  -5.40863 -0.0757655 0.763592
RightToes  2.96859e-009 0 -3.6325e-017
Spine  7.99741 -2.24862 -2.08725
Spine1  8.69049 -3.54148 0.507479
HEad  -8.49009 -25.6401 7.02404
LeftShoulder1  0.0797447 3.27008 -27.9845
LeftArm  -7.76111 -0.275499 -36.4148
LeftForeArm  9.89774 -10.1127 -6.53149
LeftHand  -0.000383605 6.48261 3.21612
RightShoulder  -0.439757 -4.8344 26.1528
RightArm  29.0278 -15.5278 39.5477
RightForeArm  -14.9272 16.7365 7.48373
RightHand  -0.59056 2.132 -9.29406
LeftUpLeg  3.07476 7.29133 -4.50212
LeftLeg  14.2739 5.94503 -0.712406
LeftFoot  -12.0501 0.101086 4.61403
LeftToes  3.24686e-010 -7.02549e-012 1.39809e-011
389
root  51.4377 38.7855 7.29721 176.057 -36.2327 176.597
RightUpLeg  -16.8286 -12.6667 -10.3954
RightLeg  50.9357 -0.350461 -0.826162
RightFoot  -5.68742 -0.133739 1.92018
RightToes  2.96859e-009 0 -3.6325e-017
Spine  8.16208 -2.33644 -2.73012
Spine1  8.56323 -3.68739 1.10533
HEad  -11.4535 -24.2039 11.6612
LeftShoulder1  0.0562732 3.342 -28.6307
LeftArm  -5.46816 -0.0397769 -37.7868
LeftForeArm  11.1864 -11.2342 -7.0753
LeftHand  -0.0218217 5.56386 3.28599
RightShoulder  -0.45062 -4.86226 26.2009
RightArm  29.9942 -16.2335 40.0413
RightForeArm  -15.9839 17.8841 7.06404
RightHand  -0.559044 1.82006 -9.17327
LeftUpLeg  4.3346 6.90502 -4.83673
LeftLeg  12.9118 2.12779 -1.39783
LeftFoot  -12.5766 0.129545 5.01947
LeftToes  3.24686e-010 -7.02549e-012 1.39809e-011
